<svg xmlns="http://www.w3.org/2000/svg" viewBox="0 0 64 64" role="img" aria-label="AIgriculture">
  <defs>
    <linearGradient id="bg" x1="9" y1="7" x2="55" y2="57" gradientUnits="userSpaceOnUse">
      <stop offset="0" stop-color="#0ea5e9"/>
      <stop offset="0.52" stop-color="#14b8a6"/>
      <stop offset="1" stop-color="#22c55e"/>
    </linearGradient>
    <linearGradient id="panel" x1="18" y1="11" x2="47" y2="54" gradientUnits="userSpaceOnUse">
      <stop offset="0" stop-color="#062331"/>
      <stop offset="1" stop-color="#083a35"/>
    </linearGradient>
    <filter id="soft" x="-25%" y="-25%" width="150%" height="150%">
      <feDropShadow dx="0" dy="4" stdDeviation="3" flood-color="#042f2e" flood-opacity="0.32"/>
    </filter>
  </defs>
  <rect width="64" height="64" rx="17" fill="url(#bg)"/>
  <circle cx="50" cy="13" r="5.5" fill="#facc15" opacity="0.98"/>
  <path d="M12 48c9.8-4.6 28.9-4.6 40 0" fill="none" stroke="#d9f99d" stroke-width="3.2" stroke-linecap="round" opacity="0.92"/>
  <path d="M16 54c7.8-3 23.7-3.1 32 0" fill="none" stroke="#bbf7d0" stroke-width="2.2" stroke-linecap="round" opacity="0.72"/>
  <g filter="url(#soft)">
    <circle cx="32" cy="30" r="20" fill="url(#panel)" opacity="0.96"/>
    <path d="M20 41c7.5-3.4 17.2-3.4 24 0" fill="none" stroke="#22d3ee" stroke-width="2.2" stroke-linecap="round" opacity="0.9"/>
    <path d="M23 34h18" stroke="#2dd4bf" stroke-width="2.3" stroke-linecap="round"/>
    <path d="M28 21h8l4 4-4 4h-8l-4-4 4-4Z" fill="#22d3ee"/>
    <circle cx="32" cy="25" r="2.1" fill="#ecfeff"/>
    <path d="M24 25h-7m23 0h7M23 25l-5-5m23 5 5-5M23 25l-5 5m23-5 5 5" stroke="#67e8f9" stroke-width="2" stroke-linecap="round"/>
    <circle cx="15" cy="18" r="3.2" fill="none" stroke="#a7f3d0" stroke-width="2"/>
    <circle cx="49" cy="18" r="3.2" fill="none" stroke="#a7f3d0" stroke-width="2"/>
    <circle cx="15" cy="32" r="3.2" fill="none" stroke="#a7f3d0" stroke-width="2"/>
    <circle cx="49" cy="32" r="3.2" fill="none" stroke="#a7f3d0" stroke-width="2"/>
  </g>
  <path d="M31.5 44.5c4.4-1.7 8.7 1.2 8.7 5.7 0 4.8-4.7 7.5-8.2 9.1-3.5-1.6-8.2-4.3-8.2-9.1 0-4.5 4.3-7.4 8.7-5.7Z" fill="#f43f5e" stroke="#fff1f2" stroke-width="1.3"/>
  <path d="M29.1 44.8c1.2-2 4.6-2.5 6.4-.5" fill="none" stroke="#86efac" stroke-width="2" stroke-linecap="round"/>
  <circle cx="29.5" cy="50.5" r="0.9" fill="#fff7ed"/><circle cx="34.2" cy="50.8" r="0.9" fill="#fff7ed"/><circle cx="32" cy="55" r="0.9" fill="#fff7ed"/>
</svg>
